<svg xmlns="http://www.w3.org/2000/svg" viewBox="0 0 511.999 511.999" style="enable-background:new 0 0 511.999 511.999" xml:space="preserve"><path style="fill:#66bb6a" d="M486.576 110.618H25.423c-9.897 0-17.921 8.024-17.921 17.921V383.46c0 9.897 8.024 17.921 17.921 17.921h461.152c9.897 0 17.921-8.024 17.921-17.921V128.539c.002-9.898-8.022-17.921-17.92-17.921z"/><path style="fill:#ade6b0" d="M460.154 308.636V203.362c-30.247 0-54.767-24.52-54.767-54.767H106.613c0 30.247-24.52 54.767-54.767 54.767v105.275c30.247 0 54.767 24.52 54.767 54.767h298.774c0-30.247 24.52-54.768 54.767-54.768z"/><circle style="fill:#ade6b0" cx="454.762" cy="153.977" r="16.791"/><circle style="fill:#ade6b0" cx="57.234" cy="153.977" r="16.791"/><circle style="fill:#ade6b0" cx="454.762" cy="358.018" r="16.791"/><circle style="fill:#ade6b0" cx="57.234" cy="358.018" r="16.791"/><circle style="fill:#66bb6a" cx="256.003" cy="256.003" r="79.38"/><path style="opacity:.1;enable-background:new" d="M83.521 383.46V128.539c0-9.898 8.024-17.921 17.921-17.921H25.423c-9.898 0-17.921 8.024-17.921 17.921V383.46c0 9.897 8.024 17.921 17.921 17.921h76.019c-9.897 0-17.921-8.024-17.921-17.921z"/><path d="M486.577 103.116H160.265a7.502 7.502 0 0 0 0 15.004h326.311c5.745 0 10.42 4.674 10.42 10.42v254.92c0 5.745-4.674 10.42-10.42 10.42H25.423c-5.745 0-10.42-4.674-10.42-10.42V128.539c0-5.745 4.674-10.42 10.42-10.42h104.834a7.502 7.502 0 0 0 0-15.004H25.423C11.405 103.116 0 114.521 0 128.539V383.46c0 14.018 11.405 25.423 25.423 25.423h461.152c14.018 0 25.423-11.405 25.423-25.423V128.539c.002-14.018-11.403-25.423-25.421-25.423z"/><path d="M188.609 363.405a7.502 7.502 0 0 0 7.502 7.502h209.277a7.502 7.502 0 0 0 7.502-7.502c0-26.062 21.203-47.266 47.266-47.266a7.502 7.502 0 0 0 7.502-7.502V203.362a7.502 7.502 0 0 0-7.502-7.502c-26.062 0-47.266-21.203-47.266-47.266a7.502 7.502 0 0 0-7.502-7.502H352.4a7.502 7.502 0 0 0 0 15.004h45.935c3.419 28.353 25.965 50.9 54.318 54.318v91.17c-28.353 3.419-50.9 25.965-54.318 54.318H196.111a7.503 7.503 0 0 0-7.502 7.503zM322.392 141.092H106.613a7.502 7.502 0 0 0-7.502 7.502c0 26.062-21.203 47.266-47.266 47.266a7.502 7.502 0 0 0-7.502 7.502v105.276a7.502 7.502 0 0 0 7.502 7.502c26.062 0 47.266 21.203 47.266 47.266a7.502 7.502 0 0 0 7.502 7.502h59.491a7.502 7.502 0 0 0 0-15.004h-52.438c-3.419-28.353-25.965-50.9-54.318-54.318v-91.17c28.353-3.419 50.9-25.965 54.318-54.318h208.726a7.504 7.504 0 0 0 0-15.006z"/><path d="M454.767 129.688c-13.395 0-24.294 10.898-24.294 24.293s10.899 24.294 24.294 24.294 24.293-10.899 24.293-24.294-10.898-24.293-24.293-24.293zm0 33.583c-5.122 0-9.29-4.168-9.29-9.29 0-5.122 4.168-9.289 9.29-9.289 5.122 0 9.289 4.167 9.289 9.289s-4.167 9.29-9.289 9.29zM57.233 178.274c13.395 0 24.293-10.899 24.293-24.294s-10.898-24.293-24.293-24.293-24.294 10.898-24.294 24.293 10.899 24.294 24.294 24.294zm0-33.582c5.122 0 9.289 4.167 9.289 9.289s-4.167 9.29-9.289 9.29-9.29-4.168-9.29-9.29c0-5.122 4.168-9.289 9.29-9.289zM454.767 333.724c-13.395 0-24.294 10.899-24.294 24.294s10.899 24.293 24.294 24.293 24.293-10.898 24.293-24.293-10.898-24.294-24.293-24.294zm0 33.583c-5.122 0-9.29-4.167-9.29-9.289s4.168-9.29 9.29-9.29c5.122 0 9.289 4.168 9.289 9.29s-4.167 9.289-9.289 9.289zM57.233 382.311c13.395 0 24.293-10.898 24.293-24.293s-10.898-24.294-24.293-24.294-24.294 10.899-24.294 24.294 10.899 24.293 24.294 24.293zm0-33.584c5.122 0 9.289 4.168 9.289 9.29s-4.167 9.289-9.289 9.289-9.29-4.167-9.29-9.289 4.168-9.29 9.29-9.29z"/><circle cx="126.731" cy="256.003" r="16.791"/><circle cx="385.265" cy="256.003" r="16.791"/><path d="M326.386 218.53a7.502 7.502 0 0 0-4.034 9.812c3.663 8.777 5.52 18.082 5.52 27.657 0 39.632-32.242 71.874-71.873 71.874-39.632 0-71.874-32.242-71.874-71.874 0-39.631 32.242-71.873 71.874-71.873 19.265 0 37.359 7.524 50.952 21.187 2.922 2.938 7.672 2.95 10.609.027s2.95-7.672.027-10.609c-16.429-16.514-38.301-25.609-61.588-25.609-47.905 0-86.877 38.973-86.877 86.876 0 47.905 38.973 86.877 86.877 86.877 47.904 0 86.876-38.973 86.876-86.877 0-11.568-2.247-22.818-6.678-33.435a7.499 7.499 0 0 0-9.811-4.033z"/><path d="M257.261 310.602a5.382 5.382 0 0 0 5.422-5.422v-7.566c16.015-1.513 26.861-10.719 26.861-24.591 0-13.493-8.197-21.185-27.364-25.976v-24.212c4.288 1.009 8.574 2.901 12.988 5.548 1.261.757 2.522 1.135 3.783 1.135 3.909 0 7.063-3.026 7.063-6.936 0-3.027-1.766-4.918-3.783-6.053-5.801-3.657-12.106-6.053-19.547-6.936v-2.775a5.382 5.382 0 0 0-5.422-5.422c-3.027 0-5.548 2.397-5.548 5.422v2.648c-15.764 1.261-26.483 10.593-26.483 24.086 0 14.251 8.576 21.186 26.987 25.977v24.843c-6.936-1.261-12.736-4.162-18.664-8.45-1.134-.882-2.648-1.387-4.162-1.387-3.909 0-6.935 3.027-6.935 6.936 0 2.648 1.261 4.666 3.405 6.053 7.692 5.421 16.393 8.826 25.851 9.835v7.818c-.001 3.029 2.521 5.425 5.548 5.425zm4.919-48.675c9.71 3.026 12.483 6.431 12.483 11.98 0 6.052-4.412 10.087-12.483 10.97v-22.95zm-22.07-29.256c0-5.548 4.035-9.836 12.106-10.594v22.321c-9.709-3.152-12.106-6.432-12.106-11.727z"/></svg>