<svg xmlns="http://www.w3.org/2000/svg" viewBox="0 0 256 256" style="enable-background:new 0 0 256 256" xml:space="preserve"><style>.st2{fill:none;stroke:#6b1d1d;stroke-width:.5;stroke-miterlimit:10}.st3{fill:#3a312a}.st4{fill:#87796f}.st5{fill:#d5de58}.st7{fill:#fce8cb}.st8{fill:#f16c7a}.st12{fill-rule:evenodd;clip-rule:evenodd;fill:#fce8cb}.st13{fill:#f5978a}.st14{fill:#d7e057}.st28{fill:#ed6e7a}</style><g id="Layer_1"><path class="st14" d="M58.503 58.966s3.408 12.659 13.222 13.246c0 0-13.1 4.525-13.321 14.202 0 0-2.579-13.572-12.925-14.059-.001 0 12.05-1.825 13.024-13.389z"/><path class="st3" d="M58.402 87.914a1.502 1.502 0 0 1-1.473-1.217c-.023-.124-2.494-12.417-11.521-12.842a1.5 1.5 0 0 1-.155-2.981c.441-.069 10.895-1.817 11.754-12.033a1.501 1.501 0 0 1 2.943-.266c.032.115 3.26 11.625 11.864 12.14a1.5 1.5 0 0 1 .402 2.916c-.121.042-12.119 4.31-12.312 12.819a1.5 1.5 0 0 1-1.375 1.46c-.043.002-.085.004-.127.004zm-7.74-15.73c3.878 1.969 6.229 5.746 7.586 8.876 2.026-4.022 5.941-6.787 8.949-8.427-4.134-1.842-6.783-5.651-8.334-8.722-1.793 4.361-5.27 6.868-8.201 8.273z"/><path class="st14" d="M36.804 75.946s2.411 8.954 9.352 9.369c0 0-9.266 3.201-9.422 10.045 0 0-1.824-9.6-9.142-9.944 0 .001 8.523-1.29 9.212-9.47z"/><path class="st3" d="M36.732 96.861a1.5 1.5 0 0 1-1.473-1.22c-.016-.081-1.703-8.442-7.738-8.726a1.502 1.502 0 0 1-.155-2.982c.296-.047 7.363-1.243 7.941-8.114a1.5 1.5 0 0 1 1.361-1.368 1.509 1.509 0 0 1 1.581 1.102c.022.079 2.228 7.92 7.995 8.265a1.5 1.5 0 0 1 .4 2.915c-.08.028-8.282 2.952-8.412 8.662a1.501 1.501 0 0 1-1.5 1.466zm-4.518-11.527c2.107 1.332 3.523 3.394 4.447 5.28 1.376-2.232 3.515-3.872 5.364-4.972-2.286-1.27-3.884-3.35-4.941-5.224-1.173 2.286-3.015 3.875-4.87 4.916z"/><path class="st14" d="M36.804 49.289s2.411 8.954 9.352 9.37c0 0-9.266 3.201-9.422 10.045 0 0-1.824-9.6-9.142-9.944 0 0 8.523-1.292 9.212-9.471z"/><path class="st3" d="M36.732 70.204a1.5 1.5 0 0 1-1.473-1.22c-.016-.081-1.703-8.441-7.738-8.726a1.502 1.502 0 0 1-.155-2.982c.296-.047 7.363-1.243 7.941-8.114a1.5 1.5 0 0 1 1.361-1.368 1.51 1.51 0 0 1 1.581 1.102c.022.079 2.228 7.92 7.995 8.265a1.501 1.501 0 0 1 .401 2.915c-.081.028-8.283 2.953-8.413 8.662a1.501 1.501 0 0 1-1.5 1.466zm-4.518-11.528c2.107 1.333 3.523 3.394 4.447 5.279 1.376-2.232 3.516-3.872 5.365-4.972-2.287-1.27-3.885-3.35-4.942-5.224-1.173 2.287-3.015 3.876-4.87 4.917z"/><path d="m79.919 191.121.078-75.616a5.758 5.758 0 0 0-5.759-5.759H58.996a5.758 5.758 0 0 0-5.759 5.759v117.99a5.758 5.758 0 0 0 5.759 5.759h15.242a5.758 5.758 0 0 0 5.759-5.759v-29.113l-.078-13.261z" style="fill:#8ac6dd"/><path class="st3" d="M74.238 240.754H58.996c-4.003 0-7.26-3.256-7.26-7.259v-117.99c0-4.002 3.257-7.259 7.26-7.259h15.242c4.003 0 7.259 3.256 7.259 7.259l-.078 75.618a1.5 1.5 0 0 1-1.5 1.499h-.002a1.5 1.5 0 0 1-1.498-1.502l.078-75.616a4.263 4.263 0 0 0-4.259-4.257H58.996a4.265 4.265 0 0 0-4.26 4.259v117.99a4.265 4.265 0 0 0 4.26 4.259h15.242a4.264 4.264 0 0 0 4.259-4.259v-29.113a1.5 1.5 0 1 1 3 0v29.113c0 4.002-3.256 7.258-7.259 7.258z"/><path class="st8" d="M53.237 132.589h26.76v26.875h-26.76z"/><path class="st3" d="M79.997 160.964H53.236a1.5 1.5 0 0 1-1.5-1.5v-26.875a1.5 1.5 0 0 1 1.5-1.5h26.761a1.5 1.5 0 0 1 1.5 1.5v26.875a1.5 1.5 0 0 1-1.5 1.5zm-25.261-3h23.761v-23.875H54.736v23.875z"/><path class="st7" d="M33.35 239.254h14.127a5.758 5.758 0 0 0 5.759-5.759v-95.147a5.758 5.758 0 0 0-5.759-5.759H33.35a5.758 5.758 0 0 0-5.759 5.759v95.147a5.76 5.76 0 0 0 5.759 5.759z"/><path class="st3" d="M47.477 240.754H33.351c-4.003 0-7.259-3.256-7.259-7.259v-95.147c0-4.002 3.256-7.259 7.259-7.259h14.127c4.003 0 7.259 3.256 7.259 7.259v95.147c-.001 4.003-3.257 7.259-7.26 7.259zM33.351 134.089a4.264 4.264 0 0 0-4.259 4.259v95.147a4.264 4.264 0 0 0 4.259 4.259h14.127a4.264 4.264 0 0 0 4.259-4.259v-95.147a4.264 4.264 0 0 0-4.259-4.259H33.351z"/><path class="st14" d="M27.592 151.404h25.645v22.134H27.592z"/><path class="st3" d="M53.236 175.038H27.592a1.5 1.5 0 0 1-1.5-1.5v-22.134a1.5 1.5 0 0 1 1.5-1.5h25.644a1.5 1.5 0 0 1 1.5 1.5v22.134a1.5 1.5 0 0 1-1.5 1.5zm-24.144-3h22.644v-19.134H29.092v19.134z"/><path class="st4" d="M101.642 92.378h102.806v117.669H101.642z"/><path class="st3" d="M204.448 211.547H101.643a1.5 1.5 0 0 1-1.5-1.5V92.377a1.5 1.5 0 0 1 1.5-1.5h102.806a1.5 1.5 0 0 1 1.5 1.5v117.669a1.502 1.502 0 0 1-1.501 1.501zm-101.305-3h99.806V93.877h-99.806v114.67z"/><path class="st7" d="M214.579 214.367v24.885H92.873v-24.885c0-15.167 12.294-27.461 27.461-27.461h18.154v-11.853h.308c4.998 3.52 10.098 5.593 14.931 5.593 5.039 0 10.231-2.052 15.249-5.531v11.791h18.143c15.167 0 27.46 12.294 27.46 27.461z"/><path class="st3" d="M214.579 240.752H92.873a1.5 1.5 0 0 1-1.5-1.5v-24.885c0-15.969 12.992-28.961 28.961-28.961h16.653v-10.353a1.5 1.5 0 0 1 1.5-1.5h.308c.31 0 .611.096.864.273 5.011 3.53 9.744 5.32 14.067 5.32 4.512 0 9.355-1.771 14.395-5.264a1.502 1.502 0 0 1 2.355 1.233v10.291h16.643c15.969 0 28.961 12.992 28.961 28.961v24.885a1.502 1.502 0 0 1-1.501 1.5zm-120.206-3h118.706v-23.385c0-14.315-11.646-25.961-25.961-25.961h-18.143a1.5 1.5 0 0 1-1.5-1.5v-9.035c-4.729 2.839-9.343 4.275-13.749 4.275-4.337 0-8.949-1.513-13.739-4.501v9.261a1.5 1.5 0 0 1-1.5 1.5h-18.153c-14.315 0-25.961 11.646-25.961 25.961v23.385z"/><path class="st8" d="M214.58 214.359v24.895H92.873v-24.895c0-15.167 12.294-27.461 27.461-27.461h5.449l-.113.082 18.872 25.029 9.739-7.337 9.739 7.337 18.872-25.029-.113-.082h4.341c15.166 0 27.46 12.294 27.46 27.461z"/><path class="st3" d="M214.58 240.754H92.873a1.5 1.5 0 0 1-1.5-1.5v-24.895c0-15.969 12.992-28.961 28.961-28.961h5.449a1.5 1.5 0 0 1 1.467 1.186l17.587 23.324 8.541-6.435a1.502 1.502 0 0 1 1.805 0l8.542 6.436 17.587-23.326a1.5 1.5 0 0 1 1.467-1.185h4.341c15.969 0 28.961 12.992 28.961 28.961v24.895a1.501 1.501 0 0 1-1.501 1.5zm-120.207-3H213.08v-23.395c0-14.315-11.646-25.961-25.961-25.961H183.7l-18.483 24.514a1.497 1.497 0 0 1-2.1.295l-8.837-6.658-8.836 6.658a1.501 1.501 0 0 1-2.1-.295l-18.484-24.514h-4.526c-14.315 0-25.961 11.646-25.961 25.961v23.395z"/><circle class="st12" cx="106.572" cy="118.832" r="10.805"/><path class="st3" d="M106.572 131.137c-6.785 0-12.306-5.52-12.306-12.305s5.521-12.306 12.306-12.306c6.785 0 12.306 5.521 12.306 12.306 0 6.785-5.521 12.305-12.306 12.305zm0-21.611c-5.131 0-9.306 4.174-9.306 9.306 0 5.131 4.175 9.305 9.306 9.305 5.131 0 9.306-4.174 9.306-9.305 0-5.131-4.175-9.306-9.306-9.306z"/><path class="st12" d="M211.689 118.832c0 5.968-4.838 10.805-10.805 10.805s-10.805-4.838-10.805-10.805c0-5.968 4.838-10.805 10.805-10.805s10.805 4.837 10.805 10.805z"/><path class="st3" d="M200.883 131.137c-6.785 0-12.305-5.52-12.305-12.305s5.52-12.306 12.305-12.306 12.306 5.521 12.306 12.306c0 6.785-5.521 12.305-12.306 12.305zm0-21.611c-5.131 0-9.305 4.174-9.305 9.306 0 5.131 4.174 9.305 9.305 9.305 5.131 0 9.306-4.174 9.306-9.305 0-5.131-4.175-9.306-9.306-9.306z"/><path class="st7" d="M201.629 113.587c0 26.455-25.478 67.061-47.901 67.061-21.403 0-47.901-40.606-47.901-67.061 0-26.455 21.446-47.901 47.901-47.901 26.455 0 47.901 21.446 47.901 47.901z"/><path class="st3" d="M153.727 182.148c-10.3 0-22.715-9.068-33.211-24.257-9.986-14.452-16.19-31.428-16.19-44.304 0-27.24 22.161-49.401 49.4-49.401 27.24 0 49.401 22.161 49.401 49.401 0 13.021-6.056 29.994-15.803 44.296-10.508 15.421-22.754 24.265-33.597 24.265zm0-114.962c-25.585 0-46.4 20.816-46.4 46.401 0 12.298 6 28.621 15.658 42.598 9.936 14.379 21.428 22.963 30.742 22.963 9.691 0 21.323-8.581 31.12-22.954 9.426-13.831 15.281-30.156 15.281-42.606.001-25.586-20.814-46.402-46.401-46.402z"/><path class="st3" d="M141.492 113.046a4.675 4.675 0 1 1-9.35 0 4.675 4.675 0 0 1 9.35 0zM175.315 113.046a4.675 4.675 0 1 1-9.35 0 4.675 4.675 0 0 1 9.35 0z"/><path class="st13" d="M135.526 126.946c0 3.325-3.606 6.021-8.054 6.021s-8.054-2.696-8.054-6.021c0-3.325 3.606-6.021 8.054-6.021s8.054 2.696 8.054 6.021zM188.038 126.946c0 3.325-3.606 6.021-8.054 6.021s-8.054-2.696-8.054-6.021c0-3.325 3.606-6.021 8.054-6.021s8.054 2.696 8.054 6.021z"/><path transform="rotate(-37.003 139.991 195.791)" class="st4" d="M133.875 180.134h12.245v31.346h-12.245z"/><path class="st3" d="M144.541 213.509a1.501 1.501 0 0 1-1.198-.598l-18.865-25.033a1.499 1.499 0 0 1 .296-2.1l9.779-7.37a1.5 1.5 0 0 1 2.101.295l18.865 25.033a1.5 1.5 0 0 1-.296 2.101l-9.779 7.37a1.5 1.5 0 0 1-.903.302zm-16.765-26.238 17.06 22.637 7.384-5.564-17.059-22.637-7.385 5.564z"/><path transform="rotate(-142.997 168.565 195.803)" class="st4" d="M162.441 180.134h12.245v31.346h-12.245z"/><path class="st3" d="M164.02 213.509a1.5 1.5 0 0 1-.903-.302l-9.778-7.37a1.501 1.501 0 0 1-.295-2.101l18.865-25.033a1.5 1.5 0 0 1 2.101-.295l9.779 7.37a1.5 1.5 0 0 1 .296 2.1l-18.866 25.033a1.505 1.505 0 0 1-1.199.598zm-7.678-9.165 7.383 5.564 17.061-22.638-7.384-5.564-17.06 22.638zM115.67 240.754a1.5 1.5 0 0 1-1.5-1.5v-19.669a1.5 1.5 0 1 1 3 0v19.669a1.5 1.5 0 0 1-1.5 1.5zM192.891 240.754a1.5 1.5 0 0 1-1.5-1.5v-19.669a1.5 1.5 0 1 1 3 0v19.669a1.5 1.5 0 0 1-1.5 1.5zM153.727 153.941c-6.808 0-11.717-3.06-14.591-9.093a1.5 1.5 0 0 1 2.709-1.29c2.366 4.968 6.253 7.383 11.882 7.383 7.206 0 10.89-4.752 11.831-7.264a1.499 1.499 0 1 1 2.809 1.052c-1.662 4.437-6.952 9.212-14.64 9.212z"/><path class="st4" d="M208.242 96.031c0 4.908-.638 9.665-1.845 14.194-12.269-5.915-23.939-13.176-34.752-21.386-3.172-2.404-6.294-4.908-9.277-7.561-3.66-3.212-7.122-6.673-10.244-10.424-6.793-8.179-11.78-17.575-15.999-27.36a54.788 54.788 0 0 1 16.917-2.653c15.79 0 30.034 6.633 40.098 17.266 9.367 9.885 15.102 23.231 15.102 37.924z"/><path class="st3" d="M206.396 111.725c-.223 0-.445-.05-.651-.149-12.062-5.816-23.841-13.063-35.007-21.542-3.565-2.702-6.63-5.2-9.367-7.635-3.905-3.427-7.407-6.99-10.399-10.584-6.058-7.294-11.212-16.104-16.224-27.727a1.497 1.497 0 0 1 .915-2.02 56.309 56.309 0 0 1 17.379-2.727c15.735 0 30.362 6.298 41.188 17.735 10.003 10.557 15.512 24.392 15.512 38.955 0 4.954-.638 9.859-1.896 14.58a1.499 1.499 0 0 1-1.45 1.114zm-68.223-67.29c4.684 10.596 9.505 18.718 15.105 25.461 2.892 3.473 6.283 6.924 10.079 10.255 2.686 2.389 5.69 4.837 9.194 7.493 10.494 7.969 21.532 14.832 32.836 20.419a53.817 53.817 0 0 0 1.355-12.032c0-13.792-5.217-26.895-14.69-36.892-10.253-10.833-24.107-16.798-39.01-16.798a53.42 53.42 0 0 0-14.869 2.094z"/><path class="st4" d="M193.14 58.107c-9.496 8.658-19.83 16.318-30.772 23.171-19.401 12.159-40.677 21.755-62.451 29.744a55.06 55.06 0 0 1-2.065-14.992c0-24.578 16.069-45.405 38.273-52.537a54.788 54.788 0 0 1 16.917-2.653c15.79.001 30.034 6.634 40.098 17.267z"/><path class="st3" d="M99.917 112.523a1.5 1.5 0 0 1-1.444-1.092 56.655 56.655 0 0 1-2.121-15.399c0-24.725 15.799-46.412 39.314-53.965a56.304 56.304 0 0 1 17.376-2.725c15.735 0 30.362 6.298 41.188 17.735a1.501 1.501 0 0 1-.079 2.139c-9.131 8.325-19.557 16.176-30.987 23.334-17.776 11.141-38.296 20.915-62.731 29.881a1.497 1.497 0 0 1-.516.092zm53.125-70.182c-5.633 0-11.169.868-16.455 2.581-22.272 7.154-37.234 27.693-37.234 51.109 0 4.413.534 8.782 1.591 13.014 23.559-8.737 43.405-18.243 60.628-29.038 10.802-6.765 20.688-14.15 29.409-21.97-10.137-10.134-23.549-15.696-37.939-15.696z"/><path class="st28" d="M200.586 50.634v27.55c0 4.969-4.019 8.999-8.988 8.999h-79.073c-4.969 0-8.988-4.03-8.988-8.999v-27.55l48.453 16.839.066.033.066-.033 48.464-16.839z"/><path class="st3" d="M191.598 88.684h-79.073c-5.783 0-10.488-4.71-10.488-10.499v-27.55a1.502 1.502 0 0 1 1.992-1.417l48.027 16.691 48.038-16.691a1.501 1.501 0 0 1 1.992 1.417v27.55c0 5.789-4.705 10.499-10.488 10.499zm-86.562-35.94v25.441c0 4.135 3.359 7.499 7.488 7.499h79.073c4.129 0 7.488-3.364 7.488-7.499V52.744l-46.443 16.137c-.392.146-.865.154-1.235-.021l-46.371-16.116z"/><path class="st5" d="m210.7 47.112 14.377-4.991v33.48c-1.866-2.407-4.395-3.887-7.199-3.887-2.772 0-5.3 1.48-7.177 3.887V47.112z"/><path class="st3" d="M225.077 77.101c-.455 0-.896-.208-1.186-.581-1.652-2.132-3.788-3.306-6.014-3.306-2.202 0-4.331 1.175-5.995 3.309a1.498 1.498 0 0 1-2.683-.922V47.112c0-.639.404-1.208 1.008-1.417l14.377-4.991a1.5 1.5 0 0 1 1.992 1.417v33.48a1.5 1.5 0 0 1-1.499 1.5zM212.2 48.179v23.905c1.725-1.221 3.665-1.87 5.678-1.87 2.027 0 3.975.647 5.699 1.866V44.229l-11.377 3.95z"/><path class="st5" d="M228.408 86.088c0 7.937-4.71 14.371-10.521 14.371-5.811 0-10.521-6.434-10.521-14.371s4.711-14.371 10.521-14.371c5.811 0 10.521 6.434 10.521 14.371z"/><path class="st3" d="M217.887 101.959c-6.629 0-12.021-7.12-12.021-15.871 0-8.751 5.393-15.871 12.021-15.871 6.629 0 12.021 7.12 12.021 15.871 0 8.751-5.392 15.871-12.021 15.871zm0-28.742c-4.975 0-9.021 5.774-9.021 12.871s4.047 12.871 9.021 12.871c4.975 0 9.021-5.774 9.021-12.871s-4.047-12.871-9.021-12.871z"/><path class="st28" d="M112.263 30.578 79.044 42.123l73.017 25.378 73.016-25.378-73.016-25.377-27.637 9.605z"/><path class="st3" d="M152.061 69.001c-.166 0-.333-.028-.492-.083L78.552 43.541a1.5 1.5 0 0 1 0-2.834l33.219-11.545a1.5 1.5 0 1 1 .984 2.834L83.613 42.124l68.447 23.79 68.446-23.79-68.446-23.79-27.145 9.434a1.5 1.5 0 0 1-.984-2.834l27.637-9.605c.318-.11.666-.11.984 0l73.016 25.377a1.5 1.5 0 0 1 0 2.834l-73.016 25.377a1.473 1.473 0 0 1-.491.084z"/><path d="M213.078 214.356v23.4h-15v-23.4c0-10.75-6.57-19.99-15.9-23.94l1.52-2.02h3.42c14.32 0 25.96 11.65 25.96 25.96z" style="fill:#d34e5c"/></g></svg>